<?xml version="1.0" standalone="no"?>
<!DOCTYPE svg PUBLIC "-//W3C//DTD SVG 20010904//EN"
 "http://www.w3.org/TR/2001/REC-SVG-20010904/DTD/svg10.dtd">
<svg version="1.0" xmlns="http://www.w3.org/2000/svg"
 width="100pt" height="50pt" viewBox="0 0 513.000000 341.000000"
 preserveAspectRatio="xMidYMid meet">

<g transform="translate(0.000000,341.000000) scale(0.100000,-0.100000)"
fill="#fff" stroke="none">
<path d="M553 2220 c-74 -17 -141 -61 -221 -144 -44 -46 -92 -106 -106 -133
-28 -57 -56 -181 -56 -250 1 -140 61 -311 134 -386 140 -142 367 -118 541 57
77 77 126 159 150 251 20 78 19 134 -5 225 -11 41 -20 89 -20 106 0 51 -29
120 -69 166 -77 87 -234 136 -348 108z m-78 -123 c-33 -17 -86 -59 -119 -92
l-59 -59 26 49 c27 53 62 85 130 116 70 31 87 21 22 -14z m214 -49 c11 -6 35
-36 55 -66 99 -151 117 -431 32 -511 -55 -51 -201 -84 -254 -57 -80 41 -123
149 -130 323 -6 176 0 208 54 261 24 24 61 50 82 57 41 16 131 12 161 -7z
m188 -560 c-45 -99 -133 -161 -242 -174 -30 -4 -55 -4 -55 -1 0 3 30 15 66 27
77 26 189 115 226 180 32 54 35 32 5 -32z"/>
<path d="M1857 2063 c-46 -50 -67 -109 -67 -200 0 -46 3 -83 8 -83 31 0 118
108 128 159 4 17 12 35 18 41 16 13 5 96 -12 93 -7 -2 -12 2 -12 7 0 20 -37 9
-63 -17z"/>
<path d="M4115 1900 c-24 -25 -47 -39 -57 -37 -36 10 -176 -12 -240 -38 -88
-35 -151 -81 -217 -158 -132 -154 -134 -245 -5 -374 81 -82 173 -133 239 -133
56 0 131 38 242 122 89 67 153 140 153 175 0 21 -12 16 -65 -28 -76 -63 -146
-91 -241 -97 -88 -5 -136 9 -173 52 -11 11 -37 41 -59 66 -59 67 -59 92 1 157
64 70 173 143 213 143 48 0 114 -29 123 -54 5 -12 5 -50 0 -86 -7 -57 -5 -67
12 -85 19 -19 19 -19 66 28 43 42 46 48 32 62 -14 14 -14 22 -2 63 8 26 20 61
27 77 15 36 15 177 1 182 -6 2 -29 -15 -50 -37z"/>
<path d="M2135 1846 c-40 -43 -43 -56 -51 -231 -6 -126 6 -335 23 -402 7 -30
28 -29 58 2 l23 26 12 -36 c15 -44 33 -44 77 0 38 38 38 36 8 135 -9 30 -19
105 -22 166 l-6 111 57 33 c31 17 74 34 95 37 34 5 41 2 68 -32 66 -79 89
-228 54 -343 -27 -89 -27 -106 -1 -99 13 3 20 0 20 -9 0 -28 36 -13 82 34 l47
47 -9 190 c-10 219 -21 283 -58 327 -25 29 -28 30 -87 25 -74 -7 -143 -36
-213 -89 l-54 -40 7 56 c8 62 -3 71 -49 41 l-23 -15 5 50 c4 43 2 50 -13 50
-10 0 -32 -15 -50 -34z"/>
<path d="M1404 1771 c-23 -11 -60 -35 -82 -55 -21 -20 -43 -36 -47 -36 -4 0
-4 24 0 53 l7 52 -21 -19 c-20 -18 -21 -18 -21 -1 0 17 -1 17 -19 1 -15 -13
-20 -14 -24 -4 -8 23 -58 -13 -84 -61 -12 -24 -30 -49 -39 -56 -16 -11 -16
-20 0 -126 9 -63 23 -174 31 -247 17 -149 26 -178 54 -163 10 6 23 17 31 25
16 20 30 20 30 2 0 -8 11 -27 24 -42 23 -28 24 -28 50 -10 30 19 69 77 58 86
-12 8 -41 130 -32 135 4 3 -3 38 -16 79 -13 41 -25 98 -26 128 l-3 53 50 25
c68 33 152 34 192 2 15 -12 35 -25 45 -28 9 -3 18 -14 21 -25 8 -28 30 -14 49
31 10 24 23 40 33 40 14 0 16 6 10 38 -11 62 -28 86 -80 114 -61 33 -131 36
-191 9z"/>
<path d="M1830 1742 l-55 -50 2 -213 c2 -217 16 -341 37 -338 6 1 18 -1 28 -5
21 -9 64 13 102 53 l30 31 -17 104 c-11 68 -17 162 -17 276 0 158 -1 171 -17
168 -10 -2 -23 2 -28 10 -8 10 -22 2 -65 -36z"/>
<path d="M2974 1751 c-122 -82 -215 -229 -218 -344 -2 -116 48 -193 159 -242
38 -18 78 -25 167 -30 143 -8 171 2 269 96 54 53 69 75 87 128 12 36 22 80 22
98 0 49 -57 177 -100 226 -61 68 -119 94 -230 102 l-95 7 -61 -41z m137 -126
c63 -22 146 -82 185 -133 82 -107 16 -189 -168 -209 -184 -19 -298 111 -227
262 35 74 61 95 117 95 27 0 69 -7 93 -15z m219 -359 c0 -2 -8 -10 -17 -17
-16 -13 -17 -12 -4 4 13 16 21 21 21 13z"/>
<path d="M4520 1773 c-63 -31 -177 -154 -212 -229 -47 -100 -51 -188 -11 -264
23 -43 42 -62 91 -93 60 -38 67 -40 186 -49 163 -12 182 -7 278 82 71 65 78
76 103 149 28 87 28 99 -12 196 -38 90 -77 140 -140 178 -52 31 -68 36 -153
41 -79 6 -101 4 -130 -11z m159 -173 c76 -41 158 -127 167 -175 12 -64 -39
-108 -155 -135 -143 -34 -272 26 -296 137 -10 49 19 135 60 179 35 36 36 37
99 32 46 -4 81 -15 125 -38z m151 -344 c0 -2 -8 -10 -17 -17 -16 -13 -17 -12
-4 4 13 16 21 21 21 13z"/>
</g>
</svg>
